<?xml version="1.0" standalone="no"?>
<!DOCTYPE svg PUBLIC "-//W3C//DTD SVG 20010904//EN"
 "http://www.w3.org/TR/2001/REC-SVG-20010904/DTD/svg10.dtd">
<svg version="1.0" xmlns="http://www.w3.org/2000/svg"
 width="1024.000000pt" height="1024.000000pt" viewBox="0 0 1024.000000 1024.000000"
 preserveAspectRatio="xMidYMid meet">
<metadata>
Created by potrace 1.14, written by Peter Selinger 2001-2017
</metadata>
<g transform="translate(0.000000,1024.000000) scale(0.100000,-0.100000)"
fill="#000000" stroke="none">
<path d="M4925 8944 c-16 -3 -46 -12 -65 -21 -19 -9 -51 -23 -70 -31 -19 -8
-48 -21 -65 -29 -67 -33 -82 -40 -115 -58 -19 -10 -66 -34 -105 -53 -38 -19
-72 -37 -75 -41 -3 -3 -17 -12 -32 -20 -16 -8 -28 -18 -28 -23 0 -4 -4 -8 -9
-8 -6 0 -41 -29 -78 -65 -37 -36 -78 -68 -90 -71 -13 -4 -23 -9 -23 -13 0 -4
-17 -13 -37 -20 -21 -8 -40 -17 -43 -20 -3 -3 -36 -17 -75 -30 -65 -22 -115
-43 -222 -92 -24 -10 -49 -19 -57 -19 -7 0 -19 -7 -26 -15 -7 -8 -19 -15 -27
-15 -13 0 -71 -28 -83 -40 -3 -3 -36 -20 -73 -39 -38 -19 -95 -51 -128 -72
-33 -22 -64 -39 -69 -39 -4 0 -10 -3 -12 -7 -1 -5 -25 -19 -51 -33 -26 -14
-60 -35 -75 -47 -44 -36 -45 -37 -94 -63 -27 -14 -48 -28 -48 -32 0 -5 -5 -8
-11 -8 -7 0 -22 -10 -34 -22 -39 -39 -85 -78 -93 -78 -4 0 -26 -17 -49 -37
-40 -37 -101 -88 -151 -128 -24 -19 -197 -191 -228 -226 -8 -9 -14 -19 -14
-23 0 -4 -12 -18 -26 -31 -14 -13 -26 -27 -27 -32 -2 -10 -23 -36 -60 -74 -16
-16 -26 -29 -22 -29 4 0 -12 -18 -34 -39 -23 -22 -41 -43 -41 -48 0 -4 -9 -14
-20 -21 -12 -7 -19 -16 -16 -21 3 -4 -3 -15 -12 -24 -29 -27 -77 -97 -67 -97
3 0 1 -6 -5 -12 -41 -49 -49 -62 -44 -69 3 -5 2 -9 -3 -9 -4 0 -21 -23 -38
-50 -16 -27 -34 -50 -38 -50 -5 0 -5 -4 -2 -10 3 -5 1 -10 -5 -10 -6 0 -8 -5
-5 -10 3 -6 -1 -13 -9 -16 -9 -3 -16 -12 -16 -20 0 -8 -4 -14 -10 -14 -5 0
-10 -7 -10 -15 0 -8 -5 -15 -12 -15 -6 0 -8 -3 -5 -6 4 -4 -2 -19 -13 -34 -11
-15 -17 -30 -13 -34 3 -3 1 -6 -5 -6 -7 0 -12 -8 -12 -18 0 -10 -8 -29 -17
-42 -10 -14 -16 -25 -14 -25 6 0 -42 -99 -63 -130 -12 -16 -20 -32 -20 -35 1
-3 -7 -22 -17 -42 -11 -21 -16 -38 -12 -38 5 0 0 -5 -9 -11 -10 -5 -15 -16
-12 -24 4 -8 1 -15 -7 -15 -7 0 -10 -3 -6 -6 3 -4 -2 -23 -13 -44 -11 -21 -17
-40 -13 -43 3 -3 -8 -30 -24 -59 -23 -41 -29 -64 -28 -103 2 -48 -10 -85 -29
-85 -17 0 -126 -60 -173 -96 -56 -42 -99 -84 -88 -84 4 0 -3 -10 -17 -23 -23
-21 -37 -44 -45 -77 -2 -8 -5 -19 -7 -25 -2 -5 -7 -20 -11 -32 -4 -13 -10 -23
-14 -23 -4 0 -7 -40 -6 -90 0 -49 3 -90 7 -90 4 0 5 -9 3 -20 -2 -11 1 -20 7
-20 5 0 8 -6 5 -14 -3 -8 -3 -17 1 -21 4 -4 8 -10 8 -13 6 -28 18 -52 26 -52
5 0 6 -4 3 -10 -3 -5 -1 -10 6 -10 7 0 10 -3 6 -6 -5 -6 4 -17 66 -81 17 -18
28 -33 24 -33 -3 0 5 -11 19 -25 14 -14 23 -29 19 -34 -3 -5 -1 -12 5 -16 6
-4 7 -12 3 -18 -9 -15 -11 -207 -2 -207 3 0 5 -15 4 -32 -1 -18 2 -38 7 -44 5
-7 8 -16 7 -20 -1 -5 0 -11 1 -14 1 -3 4 -25 6 -50 2 -25 5 -56 7 -70 3 -15
-10 -53 -31 -95 -20 -38 -37 -72 -37 -75 -12 -44 -19 -60 -26 -60 -5 0 -9 -4
-9 -9 0 -5 -8 -26 -17 -47 -17 -41 -23 -60 -25 -81 -1 -7 -5 -13 -10 -13 -5 0
-7 -3 -5 -7 3 -5 0 -19 -6 -33 -5 -14 -12 -33 -13 -43 -2 -10 -11 -31 -19 -48
-9 -16 -13 -29 -10 -29 3 0 -2 -15 -12 -32 -9 -18 -16 -39 -15 -45 2 -7 -2
-13 -8 -13 -6 0 -8 -5 -5 -10 4 -6 2 -16 -3 -23 -6 -7 -11 -15 -11 -19 -1 -5
-1 -9 -2 -10 -1 -6 -10 -44 -14 -63 -8 -45 -14 -65 -25 -85 -11 -21 -21 -54
-22 -77 -1 -7 -5 -13 -9 -13 -4 0 -7 -8 -7 -17 1 -27 -9 -69 -23 -95 -7 -12
-12 -24 -11 -25 1 -2 2 -4 1 -5 0 -2 -2 -12 -4 -23 -2 -11 -6 -31 -10 -45 -11
-38 -12 -210 -2 -210 5 0 7 -7 3 -15 -3 -8 -1 -15 3 -15 5 0 8 -8 6 -17 -1
-10 2 -24 8 -30 5 -7 6 -13 3 -13 -7 0 24 -61 35 -70 3 -3 13 -19 22 -36 9
-17 28 -42 42 -55 15 -13 36 -33 48 -44 12 -12 30 -24 40 -28 9 -3 17 -11 17
-17 0 -5 6 -10 13 -10 8 0 24 -9 37 -20 13 -11 27 -20 33 -20 5 0 23 -6 40
-14 34 -15 159 -42 245 -52 71 -9 121 -56 113 -106 0 -5 4 -8 11 -8 6 0 8 -3
5 -7 -4 -3 0 -15 10 -25 9 -10 13 -18 8 -18 -4 0 6 -13 21 -29 16 -15 47 -48
70 -72 22 -24 53 -50 67 -58 15 -8 27 -18 27 -23 0 -4 7 -8 15 -8 9 0 18 -6
21 -14 3 -8 15 -17 27 -20 13 -3 31 -13 43 -23 11 -10 49 -33 84 -52 36 -19
67 -37 70 -41 3 -3 25 -14 50 -23 60 -23 166 -97 179 -123 11 -25 10 -41 -7
-70 -6 -12 -8 -24 -5 -28 3 -3 1 -6 -5 -6 -10 0 -10 -28 0 -69 3 -13 29 -42
63 -69 11 -9 58 -31 127 -61 25 -11 73 -32 105 -47 32 -15 72 -32 88 -39 17
-7 47 -20 68 -29 21 -9 45 -16 55 -16 9 0 29 -6 44 -14 15 -8 41 -17 58 -21
17 -4 43 -13 58 -21 15 -8 35 -14 44 -14 16 0 38 -8 123 -45 17 -8 48 -16 70
-20 22 -4 45 -10 50 -15 6 -4 35 -12 65 -18 30 -6 96 -22 145 -35 50 -13 126
-32 170 -41 44 -9 103 -23 130 -31 28 -8 67 -14 88 -14 21 0 66 -7 100 -16 34
-8 89 -17 122 -20 33 -3 80 -10 105 -15 208 -48 771 -85 899 -59 29 6 75 11
102 11 27 -1 49 2 49 6 0 4 17 6 38 4 21 -2 114 10 207 27 94 17 186 31 206
31 20 0 39 3 43 7 4 4 13 8 19 8 7 0 37 4 67 8 51 7 89 15 255 52 33 8 94 21
135 30 41 9 83 21 94 26 10 6 46 17 80 24 71 16 145 38 201 59 22 8 50 15 62
16 12 0 24 4 28 9 3 5 20 13 38 17 17 3 55 17 82 29 28 12 77 30 110 40 33 10
80 28 105 41 107 54 153 74 166 74 8 0 14 5 14 10 0 6 6 10 13 10 6 0 42 12
80 27 54 23 70 34 83 62 19 39 26 89 14 96 -5 3 -6 14 -3 25 3 11 1 20 -4 20
-7 0 -9 41 -4 71 6 32 91 87 184 120 20 7 37 17 37 21 0 4 6 8 14 8 7 0 25 9
39 20 14 11 32 20 41 20 9 0 16 4 16 9 0 5 16 15 35 22 19 7 35 17 35 21 0 5
10 13 23 18 51 23 116 79 204 176 12 13 20 24 17 24 -3 0 6 12 20 27 14 15 23
30 20 35 -3 4 0 8 5 8 6 0 10 3 9 8 -1 4 9 28 22 54 24 48 40 57 100 58 29 0
152 19 211 32 7 2 50 22 96 46 88 46 183 131 218 196 11 20 24 36 29 36 5 0 6
3 3 7 -4 3 -2 12 4 19 6 8 12 28 13 47 1 18 5 37 8 43 10 18 -2 237 -14 249
-3 3 -4 19 -2 35 2 16 -1 32 -6 35 -6 4 -8 11 -5 16 4 5 2 9 -4 9 -5 0 -8 8
-6 18 1 9 -3 31 -10 49 -7 17 -11 34 -7 37 3 3 0 6 -6 6 -6 0 -9 6 -6 14 3 8
1 17 -5 20 -6 4 -8 13 -5 20 3 7 -1 20 -8 27 -7 8 -14 25 -16 39 -1 14 -3 31
-4 38 -1 6 -5 12 -9 12 -5 0 -6 7 -3 15 4 8 1 15 -4 15 -6 0 -9 9 -7 20 2 11
0 22 -5 25 -5 3 -7 12 -3 20 3 8 0 15 -7 15 -6 0 -8 5 -5 10 4 6 2 16 -3 23
-6 7 -11 15 -11 20 -1 4 -1 8 -2 10 0 1 -3 13 -5 27 -3 14 -9 27 -14 28 -6 2
-8 8 -5 12 3 5 -6 33 -19 64 -13 30 -22 57 -18 60 3 3 0 6 -6 6 -6 0 -9 6 -6
14 3 7 -1 20 -9 27 -8 8 -13 22 -11 32 1 9 -2 17 -7 17 -6 0 -8 4 -4 9 3 5 1
12 -5 16 -6 3 -17 22 -25 41 -8 19 -19 34 -25 34 -6 0 -9 4 -6 8 3 5 -4 25
-14 45 -11 21 -17 37 -14 37 4 0 0 7 -7 16 -13 15 -21 164 -9 164 3 0 5 39 5
88 -1 48 1 92 4 97 8 13 9 275 1 275 -3 0 -6 21 -6 48 -1 26 -4 74 -8 107 -4
33 -8 85 -10 115 -2 30 -5 56 -6 58 -1 1 -4 11 -5 22 -1 11 -4 22 -5 25 -1 3
-4 14 -5 25 -1 11 -4 21 -5 23 -1 1 -4 13 -6 27 -5 30 -12 64 -14 68 -2 1 -3
5 -4 10 -1 4 -4 12 -7 17 -4 6 -5 18 -4 28 2 9 0 17 -5 17 -5 0 -7 8 -6 17 2
10 -2 31 -9 48 -6 16 -11 37 -10 45 1 8 -3 21 -8 28 -5 6 -7 12 -4 12 3 0 1
15 -4 33 -9 30 -14 48 -24 87 -2 8 -4 16 -5 18 -2 1 -4 7 -5 12 -1 6 -4 13 -5
18 -1 4 -2 10 -1 15 0 4 -3 7 -7 7 -4 0 -9 11 -10 25 -1 14 -10 40 -19 58 -9
18 -16 35 -15 40 1 4 -3 7 -9 7 -5 0 -7 5 -4 10 4 6 1 17 -5 25 -7 8 -9 15 -5
15 4 0 2 7 -5 15 -7 8 -10 15 -6 15 4 0 -1 11 -10 25 -9 14 -13 25 -10 25 4 0
-1 11 -10 25 -9 14 -13 25 -8 25 4 0 3 5 -4 12 -7 7 -12 20 -12 30 0 10 -4 18
-10 18 -5 0 -9 3 -8 8 1 4 -4 18 -12 32 -7 14 -12 25 -11 25 6 0 -24 60 -32
66 -5 3 -9 9 -8 12 1 15 -22 67 -29 67 -4 0 -15 18 -24 40 -9 22 -20 40 -26
40 -5 0 -10 3 -9 8 2 15 -14 52 -23 52 -5 0 -6 5 -3 10 3 6 1 10 -4 10 -6 0
-10 3 -9 8 3 14 -22 62 -32 62 -6 0 -9 4 -5 9 3 6 0 13 -7 18 -7 4 -22 26 -33
47 -11 22 -30 50 -42 62 -12 12 -20 24 -18 26 3 2 -11 21 -30 41 -19 20 -32
37 -27 37 4 1 -4 10 -18 21 -14 12 -24 24 -23 28 1 3 -6 16 -17 28 -10 12 -16
24 -13 27 3 3 -2 8 -11 12 -9 3 -16 10 -16 15 0 9 -21 37 -52 70 -9 9 -14 20
-11 22 3 3 -4 12 -16 19 -12 7 -21 19 -21 26 0 7 -7 15 -15 18 -8 4 -15 11
-15 17 0 10 -94 111 -159 171 -19 17 -64 61 -100 98 -36 38 -69 68 -72 68 -4
0 -24 16 -45 36 -22 20 -50 43 -64 52 -14 9 -40 34 -59 54 -18 21 -37 38 -42
38 -4 0 -20 11 -35 25 -14 13 -39 30 -55 37 -16 7 -29 16 -29 19 0 8 -185 119
-198 119 -5 0 -15 7 -22 15 -7 8 -21 15 -31 15 -11 0 -19 4 -19 9 0 18 -254
160 -287 161 -7 0 -13 5 -13 10 0 6 -7 10 -15 10 -9 0 -27 8 -42 17 -14 10
-31 18 -37 19 -6 1 -56 22 -111 47 -55 24 -118 51 -140 60 -115 43 -201 83
-243 114 -26 18 -42 33 -37 33 10 0 -66 69 -76 70 -4 0 -21 14 -39 30 -18 17
-38 30 -45 30 -7 0 -18 7 -25 15 -7 8 -19 15 -28 15 -8 0 -23 6 -31 13 -9 7
-61 33 -116 57 -55 23 -110 50 -122 58 -13 8 -23 11 -23 7 0 -4 -11 0 -25 9
-13 9 -35 16 -47 16 -13 0 -36 7 -53 16 -30 15 -190 27 -250 18z"/>
</g>
</svg>
